<svg xmlns="http://www.w3.org/2000/svg" viewBox="0 0 1200 630" role="img" aria-labelledby="title desc">
  <title id="title">Centro Pedagógico Infantil Silera</title>
  <desc id="desc">Educación y cuidado infantil en Santo Domingo desde 2009</desc>
  <defs>
    <linearGradient id="bg" x1="0" y1="0" x2="1" y2="1">
      <stop stop-color="#0E2240"/>
      <stop offset="1" stop-color="#1A4B8C"/>
    </linearGradient>
    <filter id="shadow" x="-20%" y="-20%" width="140%" height="140%"><feDropShadow dx="0" dy="20" stdDeviation="22" flood-opacity=".2"/></filter>
  </defs>
  <rect width="1200" height="630" fill="url(#bg)"/>
  <circle cx="1080" cy="90" r="250" fill="#1FA98C" opacity=".15"/>
  <circle cx="1050" cy="600" r="330" fill="#FF6B3D" opacity=".18"/>
  <g transform="translate(95 95) scale(2.2)" filter="url(#shadow)">
    <rect width="64" height="64" rx="18" fill="#fff"/>
    <path d="M11 39C7 24 17 11 31 11c10-1 18 8 18 18 1 13-9 24-20 24-12 2-16 0-18-14Z" fill="#FF6B3D"/>
    <path d="M34 11c9-6 20 0 20 10 1 10-10 17-18 12-8-4-9-17-2-22Z" fill="#FFC23C"/>
    <circle cx="33" cy="24" r="7" fill="#1FA98C"/>
    <text x="32" y="52" text-anchor="middle" font-family="Arial,sans-serif" font-size="23" font-weight="900" fill="#0E2240">S</text>
  </g>
  <text x="95" y="330" font-family="Arial,sans-serif" font-size="78" font-weight="900" fill="#fff">Centro Silera</text>
  <text x="100" y="395" font-family="Arial,sans-serif" font-size="32" font-weight="700" fill="#FFC23C">Donde cada niño aprende a brillar</text>
  <text x="100" y="470" font-family="Arial,sans-serif" font-size="25" fill="#DBEAFE">Educación y cuidado infantil en Santo Domingo · Desde 2009</text>
  <rect x="100" y="520" width="300" height="6" rx="3" fill="#1FA98C"/>
</svg>
